<?xml version="1.0" encoding="UTF-8"?>
<svg width="81px" height="81px" viewBox="0 0 81 81" version="1.1" xmlns="http://www.w3.org/2000/svg" xmlns:xlink="http://www.w3.org/1999/xlink">
    <!-- Generator: Sketch 52.5 (67469) - http://www.bohemiancoding.com/sketch -->
    <title>wallet_popicon</title>
    <desc>Created with Sketch.</desc>
    <g id="new" stroke="none" stroke-width="1" fill="none" fill-rule="evenodd">
        <g id="wallet_popicon">
            <g id="Group-15">
                <rect id="base-copy-22" fill="#415BF6" x="0.333388796" y="0.311071011" width="80" height="80" rx="40"></rect>
                <g id="Group-2-Copy-9" transform="translate(19.333389, 19.967321)" stroke="#FFFFFF" stroke-linecap="round" stroke-width="2.603125">
                    <path d="M21.0394705,3.83523449 L4.32318775,3.83523449 C2.10935905,3.83523449 0.308278077,5.63631546 0.308278077,7.85014416 L0.308278077,35.4542116 C0.308278077,37.6680403 2.10935905,39.4691213 4.32318775,39.4691213 L35.7420447,39.4691213 C37.9558734,39.4691213 39.7569544,37.6680403 39.7569544,35.4542116 L39.7569544,27.3493472 L41.770663,27.3493472 L41.770663,17.0931917 L39.7569544,17.0931917 L39.7569544,7.85014416 C39.7569544,5.63631546 37.9558734,3.83523449 35.7420447,3.83523449 L31.9897927,3.83523449" id="Path"></path>
                    <path d="M35.1584899,10.2421245 L30.195847,1.02371224 C29.6809591,0.0735936773 28.5197226,-0.265734381 27.6104525,0.254568642 L10.1919047,10.2421245 L35.1584899,10.2421245 Z" id="Path" stroke-linejoin="round"></path>
                    <path d="M41.770663,27.3243322 L41.1828102,27.3243322 L30.3012793,27.3243322 C27.6246728,27.3243322 25.4358592,25.148026 25.4358592,22.4589121 L25.4358592,21.9586118 C25.4358592,19.2820053 27.6121653,17.0931917 30.3012793,17.0931917 L41.1828102,17.0931917 L41.770663,17.0931917 L41.770663,27.3243322 Z" id="Path"></path>
                    <path d="M32.5584704,22.2212694 C32.5584704,22.6229558 32.2288815,22.9525447 31.8271951,22.9525447 C31.4255087,22.9525447 31.0959199,22.6229558 31.0959199,22.2212694 C31.0959199,21.819583 31.4255087,21.4899942 31.8271951,21.4899942 C32.2288815,21.4899942 32.5584704,21.8144332 32.5584704,22.2212694 Z" id="Path" fill="#FFFFFF" transform="translate(31.827195, 22.221269) scale(-1, 1) translate(-31.827195, -22.221269) "></path>
                    <path d="M5.61828007,10.7198515 L39.6318793,10.7198515" id="Path"></path>
                </g>
            </g>
        </g>
    </g>
</svg>